<svg width="35" height="36" viewBox="0 0 35 36" fill="none" xmlns="http://www.w3.org/2000/svg">
<g clip-path="url(#clip0_117_2082)">
<path d="M30.9319 0.525635C31.9497 0.525635 32.9259 0.929965 33.6456 1.64968C34.3653 2.36939 34.7696 3.34553 34.7696 4.36335V31.2274C34.7696 32.2452 34.3653 33.2214 33.6456 33.9411C32.9259 34.6608 31.9497 35.0651 30.9319 35.0651H4.06788C3.05006 35.0651 2.07392 34.6608 1.35421 33.9411C0.634493 33.2214 0.230164 32.2452 0.230164 31.2274V4.36335C0.230164 3.34553 0.634493 2.36939 1.35421 1.64968C2.07392 0.929965 3.05006 0.525635 4.06788 0.525635H30.9319ZM29.9725 30.268V20.098C29.9725 18.4389 29.3134 16.8478 28.1403 15.6747C26.9672 14.5016 25.3761 13.8425 23.717 13.8425C22.086 13.8425 20.1863 14.8403 19.2653 16.337V14.2071H13.9116V30.268H19.2653V20.808C19.2653 19.3305 20.4549 18.1216 21.9325 18.1216C22.6449 18.1216 23.3282 18.4046 23.832 18.9084C24.3358 19.4122 24.6189 20.0955 24.6189 20.808V30.268H29.9725ZM7.67534 11.1945C8.53031 11.1945 9.35027 10.8549 9.95483 10.2503C10.5594 9.64574 10.899 8.82578 10.899 7.97081C10.899 6.18627 9.45988 4.72794 7.67534 4.72794C6.81528 4.72794 5.99044 5.0696 5.38228 5.67775C4.77413 6.28591 4.43247 7.11075 4.43247 7.97081C4.43247 9.75535 5.8908 11.1945 7.67534 11.1945ZM10.3426 30.268V14.2071H5.02731V30.268H10.3426Z" fill="#ABABD1"/>
</g>
<defs>
<clipPath id="clip0_117_2082">
<rect width="35" height="35" fill="white" transform="translate(0 0.296387)"/>
</clipPath>
</defs>
</svg>
