<svg width="30" height="31" viewBox="0 0 30 31" fill="none" xmlns="http://www.w3.org/2000/svg">
<path d="M24.7067 19.7969C23.1625 19.7969 21.6801 19.5498 20.2965 19.0928C20.0793 19.0236 19.8474 19.0146 19.6255 19.0668C19.4036 19.119 19.2001 19.2305 19.0365 19.3892L16.3187 22.107C12.8118 20.3234 9.96138 17.473 8.17781 13.9661L10.8956 11.236C11.0592 11.0807 11.1751 10.8821 11.2298 10.6633C11.2846 10.4445 11.2757 10.2146 11.2044 10.0006C10.7358 8.57758 10.4981 7.08867 10.5003 5.59045C10.5003 4.91101 9.94436 4.3551 9.26492 4.3551H4.94122C4.26178 4.3551 3.70587 4.91101 3.70587 5.59045C3.70587 17.1903 13.1068 26.5913 24.7067 26.5913C25.3861 26.5913 25.9421 26.0354 25.9421 25.3559V21.0322C25.9421 20.3528 25.3861 19.7969 24.7067 19.7969ZM23.4714 15.4732H25.9421C25.9421 12.5245 24.7707 9.69656 22.6856 7.61152C20.6006 5.52647 17.7727 4.3551 14.824 4.3551V6.82579C19.6047 6.82579 23.4714 10.6924 23.4714 15.4732ZM18.53 15.4732H21.0007C21.0007 12.0636 18.2335 9.29648 14.824 9.29648V11.7672C16.8746 11.7672 18.53 13.4225 18.53 15.4732Z" fill="#ABABD1"/>
</svg>
