<svg width="20" height="18" viewBox="0 0 20 18" fill="none" xmlns="http://www.w3.org/2000/svg">
<path d="M7.77234 6.9757V10.9779C7.77234 11.2771 7.91317 11.4953 8.19485 11.6324C8.47652 11.7696 8.75148 11.7571 9.01974 11.595L12.3596 9.61265C12.6144 9.4755 12.7418 9.26355 12.7418 8.97679C12.7418 8.69003 12.6144 8.47808 12.3596 8.34093L9.01974 6.35855C8.75148 6.19646 8.47652 6.184 8.19485 6.32114C7.91317 6.45829 7.77234 6.67648 7.77234 6.9757ZM9.78428 16.4575C8.67101 16.4575 7.6248 16.261 6.64565 15.868C5.66651 15.475 4.81478 14.9421 4.09048 14.2694C3.36618 13.5961 2.79292 12.8044 2.37068 11.8943C1.94844 10.9841 1.73705 10.0116 1.73651 8.97679C1.73651 7.94196 1.9479 6.96947 2.37068 6.05932C2.79345 5.14917 3.36672 4.35746 4.09048 3.6842C4.81478 3.01093 5.66651 2.47806 6.64565 2.08557C7.6248 1.69309 8.67101 1.49659 9.78428 1.49609C10.8976 1.49609 11.9438 1.69259 12.9229 2.08557C13.9021 2.47856 14.7538 3.01143 15.4781 3.6842C16.2024 4.35746 16.7759 5.14917 17.1987 6.05932C17.6215 6.96947 17.8326 7.94196 17.832 8.97679C17.832 10.0116 17.6207 10.9841 17.1979 11.8943C16.7751 12.8044 16.2018 13.5961 15.4781 14.2694C14.7538 14.9426 13.9021 15.4758 12.9229 15.8688C11.9438 16.2617 10.8976 16.458 9.78428 16.4575ZM9.78428 14.9613C11.5682 14.9613 13.0874 14.3786 14.3417 13.2131C15.5961 12.0476 16.223 10.6355 16.2225 8.97679C16.2225 7.31857 15.5956 5.90646 14.3417 4.74047C13.0879 3.57448 11.5687 2.99173 9.78428 2.99223C8.00036 2.99223 6.48121 3.57498 5.22683 4.74047C3.97245 5.90596 3.34553 7.31807 3.34607 8.97679C3.34607 10.635 3.97299 12.0471 5.22683 13.2131C6.48067 14.3791 7.99982 14.9618 9.78428 14.9613Z" fill="white"/>
</svg>
