<svg width="35" height="36" viewBox="0 0 35 36" fill="none" xmlns="http://www.w3.org/2000/svg">
<g clip-path="url(#clip0_117_2084)">
<path d="M17.4998 0.579224C7.91645 0.579224 0.138672 8.357 0.138672 17.9403C0.138672 27.5237 7.91645 35.3014 17.4998 35.3014C27.0831 35.3014 34.8609 27.5237 34.8609 17.9403C34.8609 8.357 27.0831 0.579224 17.4998 0.579224ZM25.5553 12.3848C25.2949 15.1278 24.1665 21.7945 23.5935 24.8674C23.3505 26.1695 22.8644 26.6035 22.413 26.6556C21.406 26.7424 20.6421 25.9959 19.6699 25.3535C18.1421 24.3466 17.2741 23.7216 15.7984 22.7494C14.0796 21.6209 15.1908 20.9959 16.1803 19.9889C16.4408 19.7285 20.8852 15.6834 20.972 15.3188C20.9841 15.2636 20.9825 15.2063 20.9673 15.1518C20.9522 15.0973 20.924 15.0474 20.8852 15.0063C20.781 14.9195 20.6421 14.9542 20.5206 14.9716C20.3644 15.0063 17.9338 16.6209 13.1942 19.8153C12.4998 20.2841 11.8748 20.5271 11.3192 20.5098C10.6942 20.4924 9.51367 20.1626 8.62826 19.8674C7.53451 19.5202 6.68381 19.3292 6.75326 18.7216C6.78798 18.4091 7.22201 18.0966 8.03798 17.7667C13.1074 15.5619 16.4755 14.1035 18.1595 13.4091C22.9859 11.3952 23.9755 11.048 24.6352 11.048C24.7741 11.048 25.104 11.0827 25.3123 11.2563C25.4859 11.3952 25.538 11.5862 25.5553 11.7251C25.538 11.8292 25.5727 12.1417 25.5553 12.3848Z" fill="#ABABD1"/>
</g>
<defs>
<clipPath id="clip0_117_2084">
<rect width="35" height="35" fill="white" transform="translate(0 0.44043)"/>
</clipPath>
</defs>
</svg>
